<svg width="242" height="670" viewBox="0 0 242 670" fill="none" xmlns="http://www.w3.org/2000/svg">
<rect x="98" y="177" width="44" height="90" fill="#D9D9D9"/>
<path d="M131.748 236.723L147.072 253.5L147.072 272.834L131.748 288.5L106.992 288.5L92.1488 272.834L92.1489 254.434L106.992 236.723L131.748 236.723Z" fill="#D9D9D9"/>
<rect x="96" y="276" width="48" height="349.201" fill="#D9D9D9"/>
<path d="M119.876 670L144 625.201H96L119.876 670Z" fill="#D9D9D9"/>
<mask id="path-5-inside-1_8_83" fill="white">
<path d="M100 276H144V624H100V276Z"/>
</mask>
<path d="M100 276H144V624H100V276Z" fill="#D9D9D9"/>
<path d="M141 276V624H147V276H141Z" fill="#BFB5B5" mask="url(#path-5-inside-1_8_83)"/>
<path d="M120.297 278L135.277 254H105.317L120.297 278Z" fill="white"/>
<path d="M120.297 254L127.99 266.333H112.605L120.297 254Z" fill="#D9D9D9"/>
<path d="M175 131.7C171.88 140.958 165.882 151.652 156 157.5C146.118 163.348 132.951 170.018 120.459 170C107.966 169.982 94.3535 163.377 84.5 157.5C74.6465 151.623 69.0748 140.81 66 131.544H83.1875C88.166 136.568 92.0716 138.93 98.3816 142.693C104.692 146.457 112.459 148.506 120.459 148.517C128.458 148.529 135.605 147.171 141.934 143.426C147.41 139.997 152.326 137.02 157.865 131.615L175 131.7Z" fill="#4D23F2"/>
<path d="M66.2 114L75.2 123.649L83.19 131.544H66L66.2 114Z" fill="#4D23F2"/>
<path d="M175 114L166 123.649L157.86 131.614L175 131.702V114Z" fill="#4D23F2"/>
<path d="M175 131.7C171.88 140.958 165.882 151.652 156 157.5C146.118 163.348 132.951 170.018 120.459 170C107.966 169.982 94.3535 163.377 84.5 157.5C74.6465 151.623 69.0748 140.81 66 131.544H83.1875C88.166 136.568 92.0716 138.93 98.3816 142.693C104.692 146.457 112.459 148.506 120.459 148.517C128.458 148.529 135.605 147.171 141.934 143.426C147.41 139.997 152.326 137.02 157.865 131.615L175 131.7Z" fill="#4D23F2"/>
<path d="M66.2 114L75.2 123.649L83.19 131.544H66L66.2 114Z" fill="#4D23F2"/>
<path d="M175 114L166 123.649L157.86 131.614L175 131.702V114Z" fill="#4D23F2"/>
<path d="M72.3226 124.205L71.4607 135.767L63.0967 142.234C52.9284 150.095 44.371 159.843 37.8928 170.944L21.5644 198.924L5.95272 200.111L22.8695 169.611C23.5453 168.392 24.3465 167.248 25.2601 166.196L44.9719 143.502C47.5265 140.561 50.4972 138.009 53.7896 135.926L72.3226 124.205Z" fill="#4D23F2"/>
<path d="M168.792 124.205L169.654 135.767L178.018 142.234C188.187 150.095 196.744 159.843 203.222 170.944L219.551 198.924L235.162 200.111L218.245 169.611C217.57 168.392 216.768 167.248 215.855 166.196L196.143 143.502C193.588 140.561 190.618 138.009 187.325 135.926L168.792 124.205Z" fill="#4D23F2"/>
<path d="M72.3226 124.205L71.4607 135.767L63.0967 142.234C52.9284 150.095 44.371 159.843 37.8928 170.944L21.5644 198.924L5.95271 200.111L22.8695 169.611C23.5453 168.392 24.3465 167.248 25.2601 166.196L44.9719 143.502C47.5265 140.561 50.4972 138.009 53.7896 135.926L72.3226 124.205Z" fill="#4D23F2"/>
<path d="M168.792 124.205L169.654 135.767L178.018 142.234C188.187 150.095 196.744 159.843 203.222 170.944L219.551 198.924L235.162 200.111L218.245 169.611C217.57 168.392 216.768 167.248 215.855 166.196L196.143 143.502C193.588 140.561 190.618 138.009 187.325 135.926L168.792 124.205Z" fill="#4D23F2"/>
<path d="M84.729 136.227L84.0291 145.616L80.1309 148.63C69.9626 156.491 61.4052 166.239 54.9269 177.34L43.5112 196.901L30.8339 197.866L44.38 173.442C45.0557 172.224 45.8569 171.08 46.7705 170.028L61.7949 152.73C64.3496 149.789 67.3202 147.237 70.6127 145.155L84.729 136.227Z" fill="#4D23F2"/>
<path d="M156.386 136.227L157.086 145.616L160.984 148.63C171.152 156.491 179.71 166.239 186.188 177.34L197.604 196.901L210.281 197.866L196.735 173.442C196.059 172.224 195.258 171.08 194.344 170.028L179.32 152.73C176.765 149.789 173.795 147.237 170.502 145.155L156.386 136.227Z" fill="#4D23F2"/>
<path d="M84.729 136.227L84.0291 145.616L80.1309 148.63C69.9626 156.491 61.4052 166.239 54.927 177.34L43.5112 196.901L30.8339 197.866L44.38 173.442C45.0557 172.224 45.8569 171.08 46.7705 170.028L61.7949 152.73C64.3496 149.789 67.3202 147.237 70.6127 145.155L84.729 136.227Z" fill="#4D23F2"/>
<path d="M156.386 136.227L157.086 145.616L160.984 148.63C171.152 156.491 179.71 166.239 186.188 177.34L197.604 196.901L210.281 197.866L196.735 173.442C196.059 172.224 195.258 171.08 194.344 170.028L179.32 152.73C176.765 149.789 173.795 147.237 170.502 145.155L156.386 136.227Z" fill="#4D23F2"/>
<path d="M69 137.5L72 144.5L64.7702 150.892C56.7981 157.94 50.0022 166.216 44.6387 175.407L31.5113 197.901L18.8339 198.866L32.38 174.442C33.0557 173.224 33.8569 172.08 34.7706 171.028L51.0089 152.333C52.7635 150.313 54.7165 148.474 56.8383 146.843L69 137.5Z" fill="#431FD2"/>
<path d="M172.115 137.5L169.115 144.5L176.345 150.892C184.317 157.94 191.113 166.216 196.476 175.407L209.604 197.901L222.281 198.866L208.735 174.442C208.059 173.224 207.258 172.08 206.344 171.028L190.106 152.333C188.351 150.313 186.398 148.474 184.277 146.843L172.115 137.5Z" fill="#431FD2"/>
<path d="M78.9414 149.446L82.3083 155.323V155.323C72.3619 163.789 64.2157 174.166 58.352 185.837L54 194.5L44 196.5L50.1243 179.06C50.9584 176.685 52.2335 174.489 53.8825 172.586L63.299 161.724C65.5503 159.127 68.1271 156.831 70.9655 154.893L78.9414 149.446Z" fill="#431FD2"/>
<path d="M162.174 149.446L158.807 155.323V155.323C168.753 163.789 176.899 174.166 182.763 185.837L187.115 194.5L197.115 196.5L190.991 179.06C190.157 176.685 188.881 174.489 187.232 172.586L177.816 161.724C175.565 159.127 172.988 156.831 170.149 154.893L162.174 149.446Z" fill="#431FD2"/>
<path d="M98.466 142.56L97.8766 150.468L97.0214 151.129C86.8531 158.991 78.2957 168.739 71.8174 179.84L63.7493 193.665L53.0714 194.477L64.3207 174.195C64.9964 172.977 65.7976 171.832 66.7113 170.78L78.5416 157.16C81.0962 154.219 84.0669 151.667 87.3593 149.584L98.466 142.56Z" fill="#4D23F2"/>
<path d="M142.649 142.56L143.238 150.468L144.094 151.129C154.262 158.991 162.819 168.739 169.298 179.84L177.366 193.665L188.044 194.477L176.794 174.195C176.119 172.977 175.317 171.832 174.404 170.78L162.573 157.16C160.019 154.219 157.048 151.667 153.756 149.584L142.649 142.56Z" fill="#4D23F2"/>
<path d="M98.466 142.56L97.8766 150.468L97.0214 151.129C86.8531 158.991 78.2957 168.739 71.8174 179.84L63.7493 193.665L53.0714 194.477L64.3207 174.195C64.9964 172.977 65.7976 171.832 66.7113 170.78L78.5416 157.16C81.0962 154.219 84.0669 151.667 87.3593 149.584L98.466 142.56Z" fill="#4D23F2"/>
<path d="M142.649 142.56L143.238 150.468L144.094 151.129C154.262 158.991 162.819 168.739 169.298 179.84L177.366 193.665L188.044 194.477L176.794 174.195C176.119 172.977 175.317 171.832 174.404 170.78L162.573 157.16C160.019 154.219 157.048 151.667 153.756 149.584L142.649 142.56Z" fill="#4D23F2"/>
<path d="M94.3012 126.964H145.699V126.964C137.606 136.789 137.606 150.97 145.699 160.795V160.795H94.3012V160.795C103.319 151.321 103.319 136.438 94.3012 126.964V126.964Z" fill="#4D23F2"/>
<path d="M110.402 112H131.766V112C131.368 114.385 132.876 116.673 135.225 117.247L145.699 119.807H94.3012L107.062 116.805C109.24 116.292 110.68 114.22 110.402 112V112Z" fill="#4D23F2"/>
<rect x="93" y="119.807" width="54" height="7.15663" fill="#481FE9"/>
<rect x="113" y="25" width="16" height="87" fill="#4D23F2"/>
<path d="M121.995 25.8068L128.551 31.9528C128.867 32.2492 128.867 32.7508 128.551 33.0472L121.952 39.2332C121.683 39.4856 121.27 39.5046 120.979 39.2781L113.602 33.5408C113.232 33.2529 113.214 32.6997 113.565 32.3882L120.984 25.7934C121.274 25.5357 121.712 25.5415 121.995 25.8068Z" stroke="#10F751" stroke-width="0.5"/>
<path d="M121.995 25.8068L128.551 31.9528C128.867 32.2492 128.867 32.7508 128.551 33.0472L121.952 39.2332C121.683 39.4856 121.27 39.5046 120.979 39.2781L113.602 33.5408C113.232 33.2529 113.214 32.6997 113.565 32.3882L120.984 25.7934C121.274 25.5357 121.712 25.5415 121.995 25.8068Z" stroke="#10F751" stroke-width="0.5"/>
<path d="M121.995 39.8068L128.551 45.9528C128.867 46.2492 128.867 46.7508 128.551 47.0472L121.952 53.2332C121.683 53.4856 121.27 53.5046 120.979 53.2781L113.602 47.5408C113.232 47.2529 113.214 46.6997 113.565 46.3882L120.984 39.7934C121.274 39.5357 121.712 39.5415 121.995 39.8068Z" stroke="#10F751" stroke-width="0.5"/>
<path d="M121.995 53.8068L128.551 59.9528C128.867 60.2492 128.867 60.7508 128.551 61.0472L121.952 67.2332C121.683 67.4856 121.27 67.5046 120.979 67.2781L113.602 61.5408C113.232 61.2529 113.214 60.6997 113.565 60.3882L120.984 53.7934C121.274 53.5357 121.712 53.5415 121.995 53.8068Z" stroke="#10F751" stroke-width="0.5"/>
<path d="M121.995 67.8068L128.551 73.9528C128.867 74.2492 128.867 74.7508 128.551 75.0472L121.952 81.2332C121.683 81.4856 121.27 81.5046 120.979 81.2781L113.602 75.5408C113.232 75.2529 113.214 74.6997 113.565 74.3882L120.984 67.7934C121.274 67.5357 121.712 67.5415 121.995 67.8068Z" stroke="#10F751" stroke-width="0.5"/>
<path d="M121.995 81.8068L128.551 87.9528C128.867 88.2492 128.867 88.7508 128.551 89.0472L121.952 95.2332C121.683 95.4856 121.27 95.5046 120.979 95.2781L113.602 89.5408C113.232 89.2529 113.214 88.6997 113.565 88.3882L120.984 81.7934C121.274 81.5357 121.712 81.5415 121.995 81.8068Z" stroke="#10F751" stroke-width="0.5"/>
<path d="M121.995 95.8068L128.551 101.953C128.867 102.249 128.867 102.751 128.551 103.047L121.952 109.233C121.683 109.486 121.27 109.505 120.979 109.278L113.602 103.541C113.232 103.253 113.214 102.7 113.565 102.388L120.984 95.7934C121.274 95.5357 121.712 95.5415 121.995 95.8068Z" stroke="#10F751" stroke-width="0.5"/>
<path d="M108 16H133.5L130.968 17.3596C128.106 18.8969 127.611 22.7971 130 25V25H112V25C114.595 22.929 114.11 18.8527 111.102 17.4481L108 16Z" fill="#4D23F2"/>
<path d="M113.392 11H128.588L130.782 12.2431C132.19 13.0413 133.182 14.4124 133.5 16V16H108V16C108.96 14.186 110.419 12.6846 112.205 11.6727L113.392 11Z" fill="#481FE9"/>
<path d="M115.5 0H126L128.581 11H113.392L115.5 0Z" fill="#4D23F2"/>
<path d="M120.374 129L145 168H96L120.374 129Z" fill="#481FE9"/>
<path d="M120.5 168L120.5 131L133 149.5L120.5 168Z" fill="#C4BE31"/>
<path d="M108 149.5L120.5 149.5L120.5 131L108 149.5Z" fill="#C4BE31"/>
<path d="M120.5 131L108 149.5L133 149.5L120.5 131Z" fill="#C4BE31"/>
<path d="M120.5 168L120.5 149.5L108 149.5L120.5 168Z" fill="#C4BE31"/>
<path d="M121 163L121 136L130 149.5L121 163Z" fill="#B8B32F"/>
<path d="M112 149.5L121 149.5L121 136L112 149.5Z" fill="#C4BE31"/>
<path d="M121 136L112 149.5L130 149.5L121 136Z" fill="#C4BE31"/>
<path d="M121 163L121 149.5L112 149.5L121 163Z" fill="#C4BE31"/>
<path d="M121.25 136.826L129.533 149.25H121.25L121.25 136.826ZM121.25 162.174L121.25 149.75H129.533L121.25 162.174ZM120.75 149.75L120.75 162.174L112.467 149.75L120.75 149.75ZM120.75 149.25L112.467 149.25L120.75 136.826L120.75 149.25Z" stroke="#B8B32F" stroke-width="0.5"/>
<path d="M96 168H145V199V199C135.437 178.281 105.887 178.434 96 199V199V168Z" fill="#4D23F2"/>
<path d="M93 192.5L102 191V198L93 199V192.5Z" fill="#C3BE31"/>
<path d="M147.935 192.406L138.935 190.906V197.906L147.935 198.906V192.406Z" fill="#C3BE31"/>
<path d="M119 166H122V183.532L119 183.559V166Z" fill="#C3BE31"/>
</svg>
